<svg xmlns="http://www.w3.org/2000/svg" viewBox="0 0 600 460" role="img" aria-labelledby="title desc">
<title id="title">Área cubierta por Vivienda Coruña</title>
<desc id="desc">Mapa de los municipios A Coruña, Arteixo, Culleredo, Oleiros, Cambre, Sada, Bergondo, Carral y Abegondo.</desc>
<rect width="600" height="460" fill="#faf8f2"/>
<g fill="#dce9e2" stroke="#28594b" stroke-width="1.4" stroke-linejoin="round">
<path d="M 171.9 95.4 L 174.1 101.4 L 183.0 107.8 L 192.7 109.3 L 195.0 107.1 L 194.9 109.9 L 196.7 108.7 L 202.3 111.7 L 200.8 120.5 L 205.3 122.7 L 204.0 128.0 L 201.3 127.6 L 201.6 129.6 L 197.6 130.3 L 196.1 134.1 L 193.4 134.2 L 187.2 138.8 L 186.8 150.5 L 200.6 170.5 L 205.3 171.1 L 209.3 176.5 L 214.2 176.3 L 213.0 177.6 L 215.9 179.0 L 215.0 179.9 L 218.4 176.9 L 225.2 175.9 L 227.4 180.8 L 230.4 178.9 L 233.7 180.2 L 233.0 173.3 L 227.8 170.7 L 228.7 165.2 L 232.9 163.8 L 230.6 159.5 L 240.4 151.0 L 253.1 152.5 L 262.8 148.5 L 262.7 145.2 L 274.5 137.9 L 270.4 133.1 L 269.4 118.3 L 270.2 114.1 L 272.5 113.4 L 270.5 112.2 L 272.0 110.4 L 268.6 110.6 L 266.0 107.2 L 268.5 104.0 L 270.1 105.4 L 268.8 103.7 L 269.9 102.9 L 272.0 104.9 L 270.2 102.6 L 271.6 101.6 L 274.0 104.8 L 273.5 109.7 L 275.2 110.1 L 274.9 104.3 L 271.7 100.2 L 268.2 101.6 L 266.6 98.4 L 257.2 90.9 L 258.3 88.9 L 265.5 92.3 L 266.3 90.7 L 264.9 89.4 L 256.9 85.2 L 254.7 86.8 L 253.5 92.0 L 248.5 92.3 L 246.3 86.0 L 252.3 85.5 L 252.2 84.2 L 248.7 84.0 L 249.6 80.5 L 256.3 80.9 L 252.6 80.2 L 254.2 78.7 L 252.9 76.5 L 255.6 76.7 L 256.3 78.5 L 254.7 78.8 L 256.6 78.9 L 257.2 81.0 L 259.7 79.7 L 265.2 83.4 L 263.8 81.0 L 265.6 76.6 L 280.2 83.8 L 264.0 75.3 L 254.5 58.1 L 258.0 58.0 L 258.3 54.4 L 260.4 54.5 L 259.4 53.3 L 260.9 52.3 L 259.6 50.5 L 255.7 50.1 L 250.1 44.6 L 250.6 46.2 L 248.7 45.8 L 251.0 49.9 L 240.6 48.0 L 240.0 51.0 L 243.6 54.4 L 237.6 52.6 L 239.7 62.3 L 241.6 62.1 L 242.9 65.8 L 246.0 66.9 L 246.5 68.7 L 241.8 76.6 L 236.7 77.8 L 234.6 76.5 L 234.8 74.4 L 230.4 74.1 L 226.3 64.5 L 222.4 63.1 L 221.9 64.8 L 218.4 64.5 L 210.6 58.5 L 205.3 57.9 L 197.2 64.1 L 195.8 68.3 L 197.5 72.2 L 194.0 71.1 L 189.5 75.6 L 185.6 75.8 L 185.7 73.4 L 183.0 75.0 L 182.4 77.7 L 184.3 76.6 L 185.3 78.3 L 182.8 86.8 L 186.0 91.5 L 176.3 91.1 L 176.8 93.1 L 174.6 93.2 L 173.3 96.0 L 171.9 95.4 Z M 189.2 64.6 L 190.8 67.1 L 193.7 64.2 L 189.2 64.6 Z M 192.2 60.4 L 193.0 63.5 L 196.2 62.2 L 192.2 60.4 Z M 194.6 58.2 L 196.3 61.1 L 198.4 57.4 L 195.9 56.7 L 196.4 58.4 L 194.6 58.2 Z M 196.7 56.0 L 198.9 56.8 L 196.7 56.0 Z M 208.3 57.7 L 208.7 56.3 L 208.3 57.7 Z"><title>A Coruña</title></path>
<path d="M 18.0 188.6 L 21.9 201.3 L 25.7 204.8 L 30.9 214.9 L 34.5 228.5 L 39.3 235.4 L 44.5 238.4 L 50.5 237.7 L 61.6 240.4 L 71.7 251.6 L 78.9 254.5 L 103.9 253.9 L 118.8 242.8 L 121.3 232.8 L 126.4 232.2 L 148.4 246.6 L 164.7 253.8 L 171.0 254.2 L 203.0 228.5 L 198.6 221.4 L 208.0 211.1 L 209.0 205.7 L 198.9 194.0 L 219.4 192.0 L 233.9 183.5 L 233.6 180.9 L 230.4 178.9 L 227.4 180.8 L 226.1 176.0 L 218.4 176.9 L 215.0 179.9 L 215.9 179.0 L 213.0 177.6 L 214.2 176.3 L 209.3 176.5 L 205.3 171.1 L 200.6 170.5 L 186.8 150.5 L 187.2 138.8 L 193.4 134.2 L 196.1 134.1 L 197.6 130.3 L 201.6 129.6 L 201.3 127.6 L 204.0 128.0 L 205.4 122.9 L 200.8 120.5 L 202.4 116.6 L 201.2 110.0 L 196.6 108.6 L 194.9 109.9 L 195.0 107.1 L 192.7 109.3 L 183.0 107.8 L 174.1 101.4 L 172.0 94.9 L 169.7 94.8 L 169.7 97.1 L 166.8 97.9 L 168.2 100.1 L 162.2 104.1 L 162.0 102.2 L 156.7 103.1 L 156.0 101.7 L 150.6 103.3 L 149.0 100.2 L 152.7 94.7 L 151.0 92.5 L 152.3 90.3 L 149.2 91.8 L 147.1 90.2 L 143.5 91.9 L 140.0 97.5 L 119.0 97.5 L 109.7 102.4 L 97.9 113.7 L 99.0 114.5 L 101.1 112.3 L 105.3 116.5 L 101.5 111.9 L 109.9 103.8 L 115.7 100.7 L 135.7 111.1 L 135.8 109.7 L 137.2 110.5 L 132.0 120.4 L 130.8 119.9 L 131.7 120.9 L 127.0 129.2 L 130.4 132.3 L 119.7 126.5 L 117.1 120.6 L 115.9 120.8 L 119.1 127.1 L 128.6 132.0 L 131.1 138.4 L 127.2 132.5 L 127.8 136.6 L 125.1 142.8 L 121.6 143.6 L 120.0 141.3 L 116.7 143.4 L 116.7 141.6 L 110.7 150.9 L 103.1 154.2 L 102.4 157.7 L 100.2 157.7 L 98.0 162.3 L 91.2 159.9 L 88.4 165.4 L 83.5 167.2 L 74.1 168.5 L 68.0 167.6 L 67.6 164.2 L 65.3 165.5 L 64.7 163.3 L 62.1 166.2 L 59.7 164.9 L 58.3 167.6 L 57.3 162.4 L 55.8 163.1 L 55.3 161.0 L 50.5 161.4 L 48.9 159.3 L 43.4 157.8 L 42.0 160.1 L 38.6 160.6 L 31.3 170.6 L 32.3 182.0 L 28.0 186.6 L 18.4 185.3 L 18.0 188.6 Z"><title>Arteixo</title></path>
<path d="M 170.9 257.9 L 209.9 290.0 L 202.6 301.2 L 250.1 303.3 L 254.6 295.6 L 264.8 286.9 L 274.9 294.8 L 287.7 290.0 L 289.1 287.7 L 276.6 282.6 L 272.9 277.3 L 282.8 265.3 L 284.2 232.9 L 276.6 220.7 L 281.9 216.4 L 280.3 213.6 L 281.6 212.1 L 280.8 207.8 L 284.9 204.6 L 289.8 194.6 L 292.8 193.7 L 299.9 183.2 L 298.7 176.8 L 299.9 173.9 L 302.2 174.3 L 304.2 172.4 L 303.1 169.3 L 298.6 165.9 L 294.9 154.5 L 282.5 149.0 L 278.7 141.2 L 274.5 137.9 L 262.7 145.2 L 262.8 148.5 L 253.1 152.5 L 240.4 151.0 L 230.6 159.5 L 232.9 163.8 L 228.7 165.2 L 227.8 170.7 L 231.3 171.3 L 233.6 174.6 L 233.8 183.7 L 219.4 192.0 L 198.9 194.0 L 209.0 205.7 L 208.0 211.1 L 198.6 221.4 L 203.0 228.5 L 171.0 254.2 L 170.9 257.9 Z"><title>Culleredo</title></path>
<path d="M 269.5 120.2 L 270.4 133.1 L 272.3 136.8 L 278.7 141.2 L 282.5 149.0 L 291.0 152.7 L 298.0 149.8 L 304.9 152.3 L 303.6 167.7 L 304.7 168.1 L 303.3 169.1 L 306.3 176.2 L 315.7 173.8 L 323.9 179.0 L 336.3 179.4 L 352.2 175.4 L 370.1 163.8 L 361.7 146.6 L 365.1 138.3 L 365.0 127.1 L 361.8 125.3 L 355.7 111.9 L 352.4 109.6 L 351.2 102.8 L 352.0 100.5 L 353.9 100.2 L 357.4 82.9 L 353.8 67.8 L 360.1 63.1 L 361.7 52.5 L 368.4 49.7 L 366.4 44.2 L 369.6 43.9 L 366.0 42.0 L 368.3 32.1 L 364.4 28.6 L 363.5 31.4 L 361.2 30.7 L 357.9 20.5 L 356.4 24.1 L 353.5 22.9 L 348.6 26.6 L 348.4 25.2 L 346.2 27.2 L 344.8 24.3 L 343.5 26.2 L 342.6 23.8 L 339.5 23.6 L 338.4 25.4 L 337.0 24.0 L 336.2 26.0 L 332.8 24.3 L 329.9 26.6 L 331.3 30.4 L 326.9 26.7 L 322.8 28.7 L 323.5 32.3 L 316.0 31.4 L 314.3 34.5 L 312.6 33.2 L 311.4 34.9 L 308.3 34.1 L 307.8 37.2 L 309.9 40.6 L 315.1 41.3 L 315.2 42.6 L 312.7 45.1 L 311.8 43.3 L 310.2 45.3 L 309.4 44.0 L 305.8 45.2 L 305.3 47.4 L 307.6 48.5 L 308.3 51.4 L 310.8 51.8 L 306.0 54.4 L 302.5 52.8 L 301.8 59.1 L 306.5 61.2 L 309.0 57.7 L 313.1 57.4 L 314.4 55.5 L 319.5 57.5 L 321.8 63.4 L 320.3 63.7 L 321.9 65.1 L 320.3 68.3 L 321.2 73.4 L 316.3 71.8 L 313.6 73.8 L 316.6 77.4 L 320.9 77.5 L 320.3 80.6 L 315.8 81.8 L 315.5 83.3 L 312.0 83.3 L 310.6 86.2 L 312.6 88.6 L 311.5 90.8 L 309.7 90.3 L 309.2 96.5 L 306.2 97.1 L 311.6 100.8 L 311.6 103.3 L 308.8 105.8 L 311.7 107.3 L 311.6 109.7 L 308.0 113.9 L 303.2 112.3 L 302.0 116.8 L 297.2 117.6 L 294.4 121.0 L 289.3 121.1 L 287.0 118.5 L 284.8 118.9 L 284.4 117.1 L 281.3 119.3 L 281.1 122.1 L 277.9 123.7 L 269.5 120.2 Z M 279.6 119.0 L 280.9 119.8 L 279.6 119.0 Z M 280.8 118.0 L 282.2 117.0 L 280.8 118.0 Z M 302.2 44.3 L 305.3 45.6 L 304.8 44.1 L 302.2 44.3 Z M 306.6 109.6 L 307.8 111.4 L 309.6 109.5 L 306.6 109.6 Z M 316.9 66.7 L 318.8 67.9 L 316.9 66.7 Z M 323.5 19.0 L 324.5 18.1 L 323.5 19.0 Z M 333.6 21.9 L 334.9 21.3 L 333.6 21.9 Z"><title>Oleiros</title></path>
<path d="M 276.6 220.7 L 284.2 232.9 L 282.8 265.3 L 309.2 243.6 L 311.9 251.0 L 309.0 253.2 L 311.0 265.4 L 315.4 263.3 L 328.7 268.0 L 337.2 279.4 L 353.8 257.0 L 379.4 253.8 L 377.9 244.4 L 379.6 235.8 L 375.5 234.2 L 375.6 225.9 L 373.0 223.2 L 372.5 215.6 L 369.4 214.2 L 383.0 199.7 L 379.3 189.3 L 381.1 178.7 L 376.6 163.4 L 370.1 163.8 L 352.2 175.4 L 336.3 179.4 L 323.9 179.0 L 315.7 173.8 L 308.1 176.9 L 304.9 174.8 L 303.3 169.1 L 304.7 168.1 L 303.6 167.7 L 304.9 152.3 L 294.8 150.2 L 291.0 152.7 L 294.9 154.5 L 298.6 165.9 L 303.1 169.3 L 304.2 172.4 L 302.2 174.3 L 299.9 173.9 L 298.7 176.8 L 299.9 183.2 L 292.8 193.7 L 289.8 194.6 L 284.9 204.6 L 280.8 207.8 L 281.6 212.1 L 280.3 213.6 L 281.9 216.4 L 276.6 220.7 Z"><title>Cambre</title></path>
<path d="M 351.2 102.8 L 352.4 109.6 L 355.7 111.9 L 361.8 125.3 L 365.0 127.1 L 365.1 138.3 L 361.7 146.6 L 370.1 163.8 L 376.6 163.4 L 379.4 173.9 L 387.2 167.6 L 381.4 161.0 L 388.0 142.3 L 404.4 133.4 L 413.5 133.4 L 417.2 117.2 L 426.8 112.8 L 428.8 109.7 L 424.7 111.1 L 420.9 106.8 L 419.2 100.6 L 424.5 96.3 L 427.2 97.4 L 428.9 93.4 L 427.0 97.1 L 422.3 95.0 L 424.0 92.5 L 422.3 92.7 L 421.7 87.8 L 425.2 89.6 L 425.0 86.7 L 427.5 88.5 L 431.4 87.1 L 423.1 85.3 L 421.0 83.4 L 421.5 80.5 L 411.0 76.4 L 409.7 67.4 L 405.0 62.2 L 405.6 57.3 L 402.4 53.4 L 399.4 52.1 L 397.3 53.2 L 397.2 50.1 L 394.8 52.9 L 392.3 50.2 L 391.3 52.2 L 384.2 50.8 L 377.8 55.9 L 374.7 52.9 L 373.7 53.9 L 368.8 52.0 L 368.4 49.7 L 366.1 50.2 L 361.7 52.5 L 360.1 63.1 L 353.8 67.8 L 357.4 82.9 L 353.9 100.2 L 352.0 100.5 L 351.2 102.8 Z"><title>Sada</title></path>
<path d="M 379.3 189.3 L 383.0 199.7 L 399.3 211.2 L 402.3 208.0 L 410.7 210.4 L 412.6 218.1 L 422.1 223.3 L 433.4 221.7 L 443.8 213.2 L 444.9 208.7 L 440.1 192.9 L 443.9 184.0 L 449.5 182.6 L 455.5 186.5 L 460.0 185.9 L 465.5 173.0 L 465.6 161.9 L 473.5 155.1 L 473.5 148.6 L 462.7 137.7 L 459.7 136.7 L 458.7 133.8 L 451.7 134.0 L 449.8 124.1 L 445.4 118.9 L 439.4 119.3 L 431.4 117.2 L 432.2 114.7 L 428.8 109.7 L 426.8 112.8 L 417.2 117.2 L 413.5 133.4 L 404.4 133.4 L 388.0 142.3 L 381.4 161.0 L 387.2 167.6 L 379.4 173.9 L 381.1 178.7 L 379.3 189.3 Z"><title>Bergondo</title></path>
<path d="M 240.9 395.7 L 279.6 390.0 L 298.8 405.1 L 299.6 418.3 L 309.1 413.9 L 310.2 411.8 L 308.4 399.5 L 311.9 394.0 L 315.7 373.9 L 311.8 344.0 L 313.4 338.2 L 301.1 330.4 L 304.9 318.4 L 309.1 314.8 L 304.6 308.0 L 305.3 302.8 L 326.4 298.7 L 338.4 302.8 L 344.8 299.3 L 346.9 295.2 L 353.4 291.3 L 362.4 289.2 L 366.9 286.1 L 369.3 280.3 L 374.5 276.6 L 374.8 272.9 L 378.3 269.7 L 378.9 265.2 L 377.3 265.2 L 380.5 264.1 L 379.4 262.3 L 382.6 257.3 L 380.2 253.7 L 353.8 257.0 L 337.2 279.4 L 328.7 268.0 L 315.4 263.3 L 311.0 265.4 L 309.0 253.2 L 311.9 251.0 L 309.2 243.6 L 282.8 265.3 L 272.9 277.3 L 276.6 282.6 L 289.1 287.7 L 287.7 290.0 L 274.9 294.8 L 264.8 286.9 L 254.6 295.6 L 250.1 303.3 L 242.3 303.4 L 255.4 320.4 L 254.0 353.2 L 240.9 395.7 Z"><title>Carral</title></path>
<path d="M 297.5 426.8 L 305.3 437.0 L 317.6 442.0 L 331.6 428.4 L 337.2 428.4 L 340.2 425.1 L 343.5 427.3 L 349.0 416.4 L 348.5 410.7 L 350.4 408.8 L 363.5 413.0 L 378.7 396.6 L 381.0 390.1 L 391.9 372.8 L 400.5 364.3 L 412.5 362.2 L 411.2 350.9 L 407.4 339.6 L 415.7 332.6 L 424.2 329.0 L 443.8 344.6 L 450.8 343.1 L 453.7 338.1 L 449.5 329.9 L 449.3 315.7 L 446.6 314.9 L 444.9 317.3 L 441.7 316.8 L 440.3 318.2 L 437.1 316.8 L 437.4 311.0 L 441.2 307.6 L 437.5 306.5 L 433.9 301.0 L 435.8 291.9 L 439.7 289.9 L 432.3 282.7 L 439.3 277.0 L 439.8 274.1 L 448.3 265.5 L 442.6 259.8 L 420.7 262.1 L 416.1 257.3 L 414.1 257.7 L 414.6 254.3 L 412.8 251.7 L 415.0 247.8 L 413.3 248.4 L 411.7 246.3 L 414.6 242.4 L 415.0 238.2 L 413.0 238.1 L 413.8 234.8 L 411.5 233.7 L 412.9 234.0 L 412.7 232.3 L 404.5 231.1 L 405.1 229.1 L 398.4 225.0 L 399.3 211.2 L 383.0 199.7 L 369.4 214.2 L 372.5 215.6 L 373.0 223.2 L 375.6 225.9 L 375.5 234.2 L 379.6 235.8 L 378.0 249.8 L 382.6 257.3 L 379.4 262.3 L 380.5 264.1 L 377.3 265.2 L 378.9 265.2 L 378.3 269.7 L 374.8 272.9 L 374.5 276.6 L 369.3 280.3 L 366.9 286.2 L 361.0 289.9 L 353.4 291.3 L 346.9 295.2 L 344.8 299.3 L 338.4 302.8 L 326.4 298.7 L 305.3 302.8 L 304.6 308.0 L 309.1 314.8 L 304.9 318.4 L 301.1 330.4 L 313.4 338.2 L 311.8 344.0 L 315.7 373.9 L 311.9 394.0 L 308.4 399.5 L 310.1 412.5 L 298.9 418.7 L 297.5 426.8 Z"><title>Abegondo</title></path>
</g><g fill="#1d211e" font-family="Arial, sans-serif" font-size="11" text-anchor="middle">
<text x="207.6" y="70.3">A Coruña</text>
<text x="121.4" y="142.4">Arteixo</text>
<text x="265.9" y="205.8">Culleredo</text>
<text x="321.6" y="50.5">Oleiros</text>
<text x="314.0" y="195.6">Cambre</text>
<text x="400.6" y="65.7">Sada</text>
<text x="446.9" y="144.4">Bergondo</text>
<text x="328.1" y="303.7">Carral</text>
<text x="376.8" y="310.0">Abegondo</text>
</g></svg>